<svg xmlns="http://www.w3.org/2000/svg" viewBox="0 0 22 22"><defs><style>.cls-1,.cls-2{fill:#7c72ee;}.cls-2{fill-rule:evenodd;}.cls-3{fill:#fff;}</style></defs><g id="Layer_2" data-name="Layer 2"><g id="Layer_1-2" data-name="Layer 1"><circle class="cls-1" cx="10.66" cy="11.07" r="9.37"/><path class="cls-2" d="M0,11A11,11,0,1,1,11,22,11,11,0,0,1,0,11Zm11,9a9,9,0,1,1,9-9A9,9,0,0,1,11,20Z"/><path class="cls-3" d="M9.17,15.24l-4.1-4.1a.1.1,0,0,1,0-.14L6.34,9.73a.1.1,0,0,1,.14,0l2.76,2.76L14.83,6.9a.1.1,0,0,1,.14,0l1.27,1.27a.1.1,0,0,1,0,.14L9.31,15.24A.1.1,0,0,1,9.17,15.24Z"/></g></g></svg>