<svg xmlns="http://www.w3.org/2000/svg" viewBox="0 0 175.35 185.46"><defs><style>.cls-1{fill:#fff;}.cls-2{fill:#010202;}</style></defs><g id="Layer_2" data-name="Layer 2"><g id="Layer_1-2" data-name="Layer 1"><path class="cls-1" d="M87.68,0C39.25,0,0,36.31,0,81.1,0,114.18,13.86,130,32.83,144.37l.09,0v38.82A2.23,2.23,0,0,0,36.48,185l33.25-24.69.71.31a95.8,95.8,0,0,0,17.24,1.57c48.42,0,87.67-36.31,87.67-81.1S136.1,0,87.68,0"/><path class="cls-2" d="M87.68,0C39.25,0,0,36.31,0,81.1,0,114.18,13.86,130,32.83,144.37l.09,0v38.82A2.23,2.23,0,0,0,36.48,185l33.25-24.69.71.31a95.8,95.8,0,0,0,17.24,1.57c48.42,0,87.67-36.31,87.67-81.1S136.1,0,87.68,0M58.29,101.65c8.59,0,15.94-5.15,18.16-13.09H89.16c-3.11,15.29-15,25.32-30.87,25.32-18.43,0-33-13.74-33-32.87s14.61-32.88,33-32.88c16,0,28,10.23,31,25.79H76.57C74.65,65.46,67,60.19,58.29,60.19,45.9,60.19,37.65,69,37.65,81a20.36,20.36,0,0,0,20.64,20.64m83.76,11H130.4V86.34c0-6-3.53-9.3-8.94-9.3-6,0-9.93,3.7-9.93,11.19v24.39H99.87V48.34h11.66V72.52c2.79-4.25,7.31-6.32,13.45-6.32a16,16,0,0,1,12.19,5c3.25,3.35,4.88,7.86,4.88,13.73Z"/></g></g></svg>